<svg width="50" height="56" viewBox="0 0 50 56" fill="none" xmlns="http://www.w3.org/2000/svg">
<path d="M5.51572 9.20703C5.42139 6.49805 7.53203 4 10.385 4H39.6187C42.4716 4 44.5822 6.49805 44.4879 9.20703C44.3973 11.8093 44.5149 15.1802 45.3633 17.9287C46.2144 20.6857 47.6495 22.4284 50 22.6523V25.1914C47.6495 25.4153 46.2144 27.158 45.3633 29.915C44.5149 32.6636 44.3973 36.0345 44.4879 38.6368C44.5822 41.3457 42.4716 43.8438 39.6187 43.8438H10.385C7.53203 43.8438 5.42139 41.3457 5.51582 38.6368C5.60635 36.0345 5.48867 32.6636 4.64023 29.915C3.78926 27.158 2.35059 25.4153 0 25.1914V22.6523C2.35049 22.4284 3.78926 20.6857 4.64023 17.9287C5.48867 15.1802 5.60635 11.8093 5.51572 9.20703Z" fill="url(#paint0_linear_261_28)"/>
<g filter="url(#filter0_d_261_28)">
<path d="M26.0843 34.5134C30.7031 34.5134 33.4864 32.2519 33.4864 28.5217C33.4864 25.7021 31.5005 23.6608 28.5517 23.3376V23.2202C30.7182 22.8677 32.4183 20.8558 32.4183 18.6089C32.4183 15.4075 29.8907 13.322 26.0392 13.322H17.3731V34.5134H26.0843ZM20.7433 16.0095H25.2268C27.6641 16.0095 29.0481 17.0962 29.0481 19.0641C29.0481 21.1642 27.4384 22.339 24.5196 22.339H20.7433V16.0095ZM20.7433 31.826V24.8503H25.1966C28.3861 24.8503 30.0411 26.0251 30.0411 28.3162C30.0411 30.6071 28.4313 31.826 25.3922 31.826H20.7433Z" fill="#1C1C1C"/>
<path d="M26.0843 34.5134C30.7031 34.5134 33.4864 32.2519 33.4864 28.5217C33.4864 25.7021 31.5005 23.6608 28.5517 23.3376V23.2202C30.7182 22.8677 32.4183 20.8558 32.4183 18.6089C32.4183 15.4075 29.8907 13.322 26.0392 13.322H17.3731V34.5134H26.0843ZM20.7433 16.0095H25.2268C27.6641 16.0095 29.0481 17.0962 29.0481 19.0641C29.0481 21.1642 27.4384 22.339 24.5196 22.339H20.7433V16.0095ZM20.7433 31.826V24.8503H25.1966C28.3861 24.8503 30.0411 26.0251 30.0411 28.3162C30.0411 30.6071 28.4313 31.826 25.3922 31.826H20.7433Z" stroke="#1C1C1C"/>
</g>
<defs>
<filter id="filter0_d_261_28" x="0.873138" y="0.822021" width="49.1133" height="54.1914" filterUnits="userSpaceOnUse" color-interpolation-filters="sRGB">
<feFlood flood-opacity="0" result="BackgroundImageFix"/>
<feColorMatrix in="SourceAlpha" type="matrix" values="0 0 0 0 0 0 0 0 0 0 0 0 0 0 0 0 0 0 127 0" result="hardAlpha"/>
<feOffset dy="4"/>
<feGaussianBlur stdDeviation="8"/>
<feColorMatrix type="matrix" values="0 0 0 0 0 0 0 0 0 0 0 0 0 0 0 0 0 0 0.15 0"/>
<feBlend mode="normal" in2="BackgroundImageFix" result="effect1_dropShadow_261_28"/>
<feBlend mode="normal" in="SourceGraphic" in2="effect1_dropShadow_261_28" result="shape"/>
</filter>
<linearGradient id="paint0_linear_261_28" x1="7.42959" y1="5.05449" x2="51.1211" y2="39.7368" gradientUnits="userSpaceOnUse">
<stop stop-color="#90FF20"/>
<stop offset="1" stop-color="#D2FF20"/>
</linearGradient>
</defs>
</svg>
