<svg width="50" height="56" viewBox="0 0 50 56" fill="none" xmlns="http://www.w3.org/2000/svg">
<path d="M49.5581 16.3763C49.5577 15.4397 49.3574 14.6121 48.9523 13.902C48.5544 13.2033 47.9585 12.6179 47.1592 12.155C40.5613 8.35063 33.957 4.5579 27.3613 0.749646C25.5831 -0.276928 23.859 -0.239309 22.094 0.802002C19.4679 2.35059 6.31961 9.88352 2.40161 12.1529C0.788061 13.0871 0.00290869 14.5167 0.00252087 16.3745C0 24.0254 0.00252087 31.6762 0 39.327C0 40.2431 0.192167 41.0548 0.579411 41.7542C0.977514 42.4738 1.58175 43.0754 2.39948 43.5487C6.31768 45.8181 19.4677 53.3504 22.0932 54.8996C23.859 55.9415 25.5831 55.9787 27.3619 54.9519C33.9578 51.1435 40.5625 47.3507 47.1613 43.5464C47.979 43.0732 48.5833 42.4713 48.9814 41.7523C49.368 41.0527 49.5606 40.2411 49.5606 39.3249C49.5606 39.3249 49.5606 24.0273 49.5581 16.3763Z" fill="url(#paint0_linear_261_14)"/>
<path d="M24.8561 27.7764L0.579407 41.7544C0.97751 42.474 1.58174 43.0755 2.39947 43.5488C6.31767 45.8182 19.4677 53.3505 22.0932 54.8997C23.859 55.9416 25.5831 55.9788 27.3619 54.9521C33.9578 51.1436 40.5625 47.3509 47.1613 43.5465C47.979 43.0734 48.5833 42.4715 48.9814 41.7524L24.8561 27.7764Z" fill="url(#paint1_linear_261_14)"/>
<path d="M49.5581 16.3764C49.5577 15.4398 49.3574 14.6122 48.9523 13.9021L24.8561 27.7766L48.9814 41.7524C49.368 41.0528 49.5602 40.2413 49.5606 39.325C49.5606 39.325 49.5606 24.0274 49.5581 16.3764Z" fill="url(#paint2_linear_261_14)"/>
<path d="M39.1494 22.5508V25.1636H41.7622V22.5508H43.0686V25.1636H45.6814V26.47H43.0686V29.0825H45.6814V30.3889H43.0686V33.0017H41.7622V30.3889H39.1494V33.0017H37.8431V30.3889H35.2305V29.0825H37.8431V26.47H35.2305V25.1636H37.8431V22.5508H39.1494ZM41.7622 26.4698H39.1494V29.0825H41.7622V26.4698Z" fill="#1C1C1C"/>
<path d="M24.9095 9.42915C31.7243 9.42915 37.6741 13.1302 40.8611 18.6315L40.8301 18.5785L32.8118 23.1952C31.2322 20.5206 28.3363 18.7154 25.014 18.6782L24.9093 18.6776C19.8433 18.6776 15.7362 22.7847 15.7362 27.8507C15.7346 29.4474 16.1517 31.0167 16.946 32.4018C18.5272 35.1621 21.4997 37.0239 24.9095 37.0239C28.3403 37.0239 31.3297 35.1385 32.9027 32.3487L32.8645 32.4156L40.8706 37.0536C37.7186 42.5083 31.8502 46.1979 25.1146 46.2714L24.9095 46.2726C18.0731 46.2726 12.1064 42.5487 8.92736 37.0183C7.37547 34.3184 6.48755 31.1885 6.48755 27.8507C6.48755 17.6768 14.735 9.42896 24.9093 9.42896L24.9095 9.42915Z" fill="#1C1C1C"/>
<defs>
<linearGradient id="paint0_linear_261_14" x1="0" y1="0" x2="50" y2="56" gradientUnits="userSpaceOnUse">
<stop stop-color="#90FF20"/>
<stop offset="1" stop-color="#D2FF20"/>
</linearGradient>
<linearGradient id="paint1_linear_261_14" x1="19.5" y1="31" x2="29.5" y2="54.5" gradientUnits="userSpaceOnUse">
<stop stop-color="#61AE13"/>
<stop offset="1" stop-color="#D2FF20"/>
</linearGradient>
<linearGradient id="paint2_linear_261_14" x1="45" y1="16.5" x2="43" y2="38.5" gradientUnits="userSpaceOnUse">
<stop stop-color="#D2FF20"/>
<stop offset="1" stop-color="#90FF20"/>
</linearGradient>
</defs>
</svg>
