<svg width="45" height="50" viewBox="0 0 45 50" fill="none" xmlns="http://www.w3.org/2000/svg">
<path d="M44.1229 0L39.9858 45.1385L22.0612 50L4.1363 45.1385L0 0H44.1229ZM35.7863 9.17822H22.0451H8.06035L8.72916 14.6291H22.0451H22.793L22.0451 14.9427L9.21583 20.3249L9.6413 25.653L22.0451 25.6935L28.6931 25.7148L28.2675 32.8191L22.045 34.5838V34.5782L21.994 34.5925L15.9845 33.0644L15.6199 28.6544H15.5999H10.0259H10.0063L10.7359 37.1679L22.0451 40.5367V40.5306L22.0655 40.5367L33.3142 37.2292L34.7733 20.3249H22.0451H22.0138L22.0451 20.3112L35.2396 14.6291L35.7863 9.17822Z" fill="url(#paint0_linear_168_25)"/>
<defs>
<linearGradient id="paint0_linear_168_25" x1="1.61468" y1="1.62094" x2="38.9753" y2="49.2293" gradientUnits="userSpaceOnUse">
<stop stop-color="#90FF20"/>
<stop offset="1" stop-color="#D2FF20"/>
</linearGradient>
</defs>
</svg>
