<svg width="50" height="50" viewBox="0 0 50 50" fill="none" xmlns="http://www.w3.org/2000/svg">
<path d="M4.03963 27.2081C2.82013 25.9886 2.82013 24.0114 4.03963 22.7919L22.7919 4.03963C24.0114 2.82013 25.9886 2.82013 27.2081 4.03963L45.9603 22.7919C47.1798 24.0114 47.1798 25.9886 45.9603 27.2081L27.2081 45.9603C25.9886 47.1798 24.0114 47.1798 22.7919 45.9603L4.03963 27.2081Z" fill="url(#paint0_linear_168_34)"/>
<path d="M18.9827 7.90869L17.0837 9.80766L21.9883 14.7122C21.7898 15.1379 21.6791 15.6126 21.6791 16.1132C21.6791 17.5344 22.572 18.7471 23.8275 19.2207V31.2185C22.572 31.6921 21.6791 32.9048 21.6791 34.326C21.6791 36.1598 23.1656 37.6463 24.9994 37.6463C26.8331 37.6463 28.3197 36.1598 28.3197 34.326C28.3197 33.0376 27.5858 31.9204 26.5131 31.3701V19.2371L31.2014 23.9254C31.0127 24.3424 30.9077 24.8054 30.9077 25.2929C30.9077 27.1266 32.3942 28.6132 34.228 28.6132C36.0617 28.6132 37.5483 27.1266 37.5483 25.2929C37.5483 23.4591 36.0617 21.9726 34.228 21.9726C33.8716 21.9726 33.5284 22.0287 33.2066 22.1326L28.1714 17.0974C28.2678 16.7865 28.3197 16.4558 28.3197 16.1132C28.3197 14.2794 26.8331 12.7928 24.9994 12.7928C24.6567 12.7928 24.3262 12.8448 24.0152 12.9412L18.9827 7.90869Z" fill="#1C1C1C"/>
<defs>
<linearGradient id="paint0_linear_168_34" x1="13.7931" y1="13.3621" x2="37.069" y2="36.2069" gradientUnits="userSpaceOnUse">
<stop stop-color="#90FF20"/>
<stop offset="0.9999" stop-color="#D2FF20"/>
<stop offset="1" stop-color="#EE513B" stop-opacity="0"/>
</linearGradient>
</defs>
</svg>
