<svg width="50" height="47" viewBox="0 0 50 47" fill="none" xmlns="http://www.w3.org/2000/svg">
<path d="M25 0C11.1875 0 0 10.7056 0 23.9231C0 34.5091 7.15625 43.4504 17.0937 46.6202C18.3437 46.8295 18.8125 46.1119 18.8125 45.4839C18.8125 44.9157 18.7813 43.0318 18.7813 41.0282C12.5 42.1346 10.875 39.5629 10.375 38.2172C10.0937 37.5294 8.875 35.4062 7.8125 34.8381C6.9375 34.3895 5.6875 33.2831 7.78125 33.2532C9.75 33.2233 11.1563 34.9876 11.625 35.7053C13.875 39.3237 17.4688 38.3069 18.9063 37.6789C19.125 36.1239 19.7812 35.0773 20.5 34.4792C14.9375 33.8811 9.125 31.8178 9.125 22.6672C9.125 20.0655 10.0938 17.9125 11.6875 16.2378C11.4375 15.6398 10.5625 13.1876 11.9375 9.8982C11.9375 9.8982 14.0313 9.27022 18.8125 12.3503C20.8125 11.8121 22.9375 11.5429 25.0625 11.5429C27.1875 11.5429 29.3125 11.8121 31.3125 12.3503C36.0938 9.24031 38.1875 9.8982 38.1875 9.8982C39.5625 13.1876 38.6875 15.6398 38.4375 16.2378C40.0313 17.9125 41 20.0356 41 22.6672C41 31.8477 35.1563 33.8811 29.5938 34.4792C30.5 35.2268 31.2813 36.6622 31.2813 38.905C31.2813 42.1047 31.25 44.6765 31.25 45.4839C31.25 46.1119 31.7188 46.8595 32.9688 46.6202C37.9317 45.0169 42.2443 41.9647 45.2995 37.8931C48.3547 33.8215 49.9987 28.9356 50 23.9231C50 10.7056 38.8125 0 25 0Z" fill="white"/>
</svg>
