<svg width="50" height="48" viewBox="0 0 50 48" fill="none" xmlns="http://www.w3.org/2000/svg">
<path d="M14.6462 0.167314C11.9862 0.28741 10.1696 0.693629 8.58163 1.29076C6.93811 1.90367 5.5451 2.72616 4.15908 4.05726C2.77307 5.38835 1.91956 6.72232 1.28355 8.29744C0.668047 9.8204 0.251043 11.5601 0.133542 14.107C0.0160407 16.6539 -0.00995956 17.4725 0.00304057 23.9692C0.0160407 30.4658 0.046041 31.2802 0.175042 33.8323C0.302044 36.3773 0.725048 38.1151 1.34905 39.6352C1.99056 41.2079 2.84907 42.5404 4.24058 43.8672C5.6321 45.194 7.02511 46.0088 8.67513 46.6184C10.2651 47.2064 12.0837 47.6074 14.7447 47.7189C17.4057 47.8304 18.2622 47.8562 25.0493 47.8437C31.8364 47.8313 32.6909 47.8026 35.3574 47.6815C38.0239 47.5605 39.8304 47.1528 41.4195 46.5586C43.063 45.9433 44.4565 45.1232 45.842 43.7911C47.2275 42.4591 48.0805 41.1241 48.716 39.5481C49.332 38.0265 49.7505 36.2864 49.866 33.7419C49.9825 31.1883 50.01 30.373 49.997 23.8773C49.984 17.3816 49.9535 16.5673 49.827 14.0161C49.7005 11.4649 49.277 9.73236 48.6535 8.21131C48.011 6.63859 47.1535 5.30701 45.7625 3.97927C44.3715 2.65152 42.9755 1.83573 41.329 1.22903C39.7379 0.640041 37.9204 0.238606 35.2594 0.128559C32.5984 0.018511 31.7419 -0.00971861 24.9523 0.00272155C18.1627 0.0151617 17.3127 0.0429128 14.6462 0.167314ZM14.9382 43.4151C12.5007 43.3136 11.1772 42.9261 10.2951 42.6017C9.12713 42.171 8.29512 41.6505 7.41612 40.8175C6.53711 39.9844 5.9971 39.1854 5.5411 38.0701C5.19859 37.2261 4.78609 35.961 4.67209 33.6285C4.54809 31.1074 4.52209 30.3505 4.50759 23.9634C4.49309 17.5764 4.51859 16.8204 4.63409 14.2984C4.73809 11.9678 5.14559 10.6998 5.4841 9.85629C5.9341 8.73715 6.47611 7.94241 7.34862 7.10175C8.22112 6.26108 9.05363 5.74338 10.2201 5.30701C11.1012 4.97783 12.4232 4.58644 14.8597 4.47544C17.4962 4.35582 18.2862 4.3319 24.9598 4.31802C31.6334 4.30415 32.4254 4.32807 35.0629 4.43907C37.4984 4.54051 38.8239 4.92663 39.7044 5.25247C40.873 5.68309 41.7045 6.20031 42.583 7.03668C43.4615 7.87304 44.003 8.66681 44.459 9.78547C44.8035 10.6261 45.2125 11.8907 45.3275 14.2237C45.453 16.7467 45.4815 17.5032 45.4935 23.8888C45.5055 30.2744 45.482 31.0328 45.3665 33.5538C45.26 35.8864 44.856 37.1533 44.5165 37.9983C44.0665 39.1155 43.524 39.9122 42.651 40.7524C41.778 41.5926 40.9465 42.1103 39.7794 42.5466C38.8994 42.8753 37.5759 43.2677 35.1414 43.3787C32.5049 43.4973 31.7149 43.5222 25.0388 43.5361C18.3627 43.55 17.5752 43.5241 14.9387 43.4151M35.3189 11.1371C35.3199 11.705 35.4968 12.2598 35.8273 12.7314C36.1579 13.203 36.6271 13.5702 37.1757 13.7866C37.7243 14.0029 38.3277 14.0588 38.9095 13.947C39.4913 13.8352 40.0253 13.5608 40.4442 13.1586C40.863 12.7563 41.1477 12.2443 41.2624 11.6871C41.3771 11.13 41.3165 10.5529 41.0884 10.0287C40.8603 9.50447 40.4748 9.05679 39.9808 8.74225C39.4867 8.4277 38.9063 8.26042 38.3129 8.26155C37.5174 8.26307 36.7552 8.56686 36.1937 9.10611C35.6322 9.64536 35.3176 10.3759 35.3189 11.1371ZM12.1637 23.9472C12.1777 30.7318 17.9357 36.2194 25.0243 36.2065C32.1129 36.1935 37.8514 30.684 37.8379 23.8993C37.8244 17.1146 32.0649 11.6257 24.9753 11.6391C17.8857 11.6525 12.1502 17.1634 12.1637 23.9472ZM16.6667 23.9385C16.6634 22.3613 17.149 20.8186 18.062 19.5054C18.975 18.1923 20.2744 17.1677 21.7959 16.5612C23.3174 15.9548 24.9927 15.7937 26.6099 16.0983C28.2271 16.403 29.7136 17.1597 30.8813 18.2727C32.0491 19.3858 32.8457 20.8052 33.1705 22.3515C33.4953 23.8978 33.3335 25.5016 32.7058 26.9599C32.0781 28.4183 31.0125 29.6658 29.6439 30.5446C28.2753 31.4235 26.665 31.8943 25.0168 31.8974C23.9224 31.8996 22.8382 31.6954 21.8263 31.2966C20.8143 30.8978 19.8943 30.3122 19.1189 29.5731C18.3435 28.834 17.7279 27.956 17.3071 26.9893C16.8864 26.0225 16.6687 24.9858 16.6667 23.9385Z" fill="white"/>
</svg>
