<svg width="50" height="50" viewBox="0 0 50 50" fill="none" xmlns="http://www.w3.org/2000/svg">
<path d="M22.6019 24.6984C22.6019 29.8938 22.9545 34.2593 20.5192 36.8429C19.1495 38.2963 16.9882 39.1526 14.329 39.1526C9.9674 39.1526 7.54569 36.9159 6 33.821C7.48803 32.8208 9.00871 31.854 10.5586 30.9187C11.191 32.7801 13.3262 34.8729 15.7359 33.5846C17.2632 32.7674 17.0869 30.2901 17.0869 27.6011C17.0869 22.0179 17.0869 15.5773 17.0869 10.5401C17.0821 10.4563 17.0773 10.3726 17.1427 10.3624C18.9628 10.3624 20.7826 10.3624 22.602 10.3624C22.6019 14.8494 22.6019 19.9259 22.6019 24.6984ZM36.446 21.3221C35.0544 20.6948 33.3247 19.9528 32.9007 18.5966C32.4253 17.0766 33.2359 15.8244 34.1385 15.3983C36.1231 14.46 38.4883 16.0048 38.9783 17.5899C40.4718 16.6541 41.9604 15.7127 43.312 14.628C41.7238 11.8518 39.3956 9.86428 35.1517 10.0072C32.815 10.0858 31.0597 10.8624 29.7492 12.0212C28.4702 13.1519 27.4826 14.7389 27.3289 16.9975C26.8694 23.7577 31.6749 25.4833 35.7707 27.3641C37.0619 27.9569 38.4972 28.5556 39.0912 29.7336C40.316 32.1645 38.1464 33.7683 36.2773 33.9398C33.2774 34.215 31.2548 32.3675 30.0867 30.4446C28.6275 31.3967 27.0409 32.2143 25.6407 33.2288C27.5882 36.8339 30.7815 39.1677 35.7707 39.1527C40.8605 39.1376 44.6339 36.5544 44.9437 31.6888C45.3648 25.0753 40.6579 23.2201 36.446 21.3221Z" fill="url(#paint0_linear_224_2)"/>
<defs>
<linearGradient id="paint0_linear_224_2" x1="11.766" y1="11.8016" x2="47.2514" y2="36.1773" gradientUnits="userSpaceOnUse">
<stop stop-color="#90FF20"/>
<stop offset="1" stop-color="#D2FF20"/>
</linearGradient>
</defs>
</svg>
