<svg width="50" height="56" viewBox="0 0 50 56" fill="none" xmlns="http://www.w3.org/2000/svg">
<path d="M46.0766 37.213C45.6985 39.3905 44.3537 41.2926 42.3868 42.4318C40.5534 43.4936 38.3564 43.8106 36.0302 44.146C34.7841 44.3257 33.4955 44.5116 32.2366 44.822C28.9081 45.6428 25.6842 47.2442 22.5665 48.7928C16.3271 51.8919 10.9388 54.568 5.85798 51.0468C2.13631 48.4674 2.30817 43.695 2.74175 41.0798C3.14358 38.6569 4.22994 36.4255 5.28053 34.2675C5.46205 33.8944 5.63993 33.5282 5.81304 33.1652C6.33374 33.3732 6.88759 33.5152 7.46492 33.5797C6.39551 37.1091 8.07727 40.9466 11.6072 42.76L12.0903 43.0082L12.602 42.8261C15.3926 41.8322 17.964 40.2375 20.2448 38.0856C21.719 36.6947 22.9866 35.1559 24.0284 33.5117C24.3408 33.5587 24.6602 33.5835 24.9855 33.5835C28.2252 33.5835 30.9081 31.1615 31.3233 28.0333C32.6494 27.9847 34.058 27.9843 35.3918 28.0328C35.8067 31.1612 38.4897 33.5835 41.7295 33.5835C43.0842 33.5835 44.3407 33.1589 45.3759 32.4377C46.0946 33.9089 46.3628 35.5641 46.0766 37.213ZM8.17807 23.3405C10.3202 23.3405 12.0627 25.0832 12.0627 27.2251C12.0627 27.9945 11.837 28.7119 11.4493 29.3161C10.8035 30.3231 9.70618 31.0135 8.44495 31.0996C8.3567 31.1056 8.26782 31.1097 8.17807 31.1097C7.70079 31.1097 7.24348 31.0226 6.82068 30.8646C5.96543 30.5445 5.25278 29.9309 4.80451 29.1473C4.48 28.58 4.29346 27.9241 4.29346 27.2251C4.29346 25.0832 6.03611 23.3405 8.17807 23.3405ZM21.1009 27.1882C21.1009 25.2421 22.5395 23.6261 24.4089 23.3467C24.5971 23.3184 24.7897 23.3036 24.9855 23.3036C26.2308 23.3036 27.3395 23.8936 28.0506 24.8077C28.2274 25.0348 28.3807 25.2813 28.5041 25.5444C28.7384 26.044 28.8701 26.6009 28.8701 27.1882C28.8701 27.4988 28.8324 27.8007 28.7633 28.0903C28.3847 29.6751 27.0333 30.8864 25.3774 31.0531C25.2486 31.066 25.1178 31.0728 24.9855 31.0728C24.21 31.0728 23.4874 30.8435 22.8802 30.4503C21.8107 29.7575 21.1009 28.5545 21.1009 27.1882ZM37.3138 22.569C36.4816 23.3653 35.8628 24.3826 35.5546 25.5265C34.1161 25.4726 32.5908 25.4726 31.1606 25.5265C30.8321 24.3072 30.1507 23.2316 29.2341 22.4145L33.2537 14.2866L37.3138 22.569ZM19.999 2.51065H46.4978L40.2391 20.9697C39.9678 21.0349 39.7032 21.1168 39.4464 21.2154L33.2636 8.60287L27.0634 21.1401C26.7954 21.0478 26.5193 20.9735 26.2366 20.9171L19.999 2.51065ZM45.6141 27.1882C45.6141 27.5777 45.5559 27.9537 45.4488 28.3087C45.1937 29.1533 44.6585 29.877 43.9516 30.3719C43.3214 30.813 42.5554 31.0728 41.7295 31.0728C39.9359 31.0728 38.4229 29.8505 37.9781 28.1952C37.8918 27.8739 37.8449 27.5364 37.8449 27.1882C37.8449 26.6572 37.9523 26.1509 38.146 25.6896C38.2458 25.4519 38.3703 25.2272 38.5133 25.016C39.2124 23.9843 40.3921 23.3036 41.7295 23.3036C41.8522 23.3036 41.9732 23.31 42.093 23.3212C44.0652 23.505 45.6141 25.1688 45.6141 27.1882ZM48.1248 27.1882C48.1248 24.066 45.8752 21.4609 42.9123 20.9043L50 0H16.4972L23.5957 20.9469C20.7356 21.5833 18.5902 24.1392 18.5902 27.1882C18.5902 29.4777 19.8003 31.4888 21.6136 32.6189C20.7414 33.9184 19.707 35.1412 18.5218 36.2595C16.642 38.0329 14.5478 39.3777 12.2901 40.2626C10.0161 38.8341 9.05479 36.1403 10.0531 33.7935L10.1314 33.6096C10.1803 33.4947 10.2293 33.3796 10.2781 33.2645C12.7758 32.3933 14.5733 30.016 14.5733 27.2251C14.5733 23.6987 11.7044 20.8299 8.17807 20.8299C4.65173 20.8299 1.78281 23.6987 1.78281 27.2251C1.78281 29.0051 2.51442 30.6169 3.69191 31.7774C3.47851 32.2322 3.2538 32.6948 3.0232 33.1685C1.94663 35.3797 0.726455 37.886 0.264997 40.669C-0.651516 46.1962 0.826881 50.6146 4.42778 53.1103C6.61293 54.6247 8.83184 55.2201 11.0649 55.2201C15.2698 55.2201 19.5232 53.1077 23.6834 51.0413C26.6794 49.5532 29.7776 48.0143 32.8378 47.2596C33.9764 46.9788 35.1481 46.8098 36.3886 46.631C38.8484 46.2761 41.3921 45.9093 43.6452 44.6044C46.2569 43.0916 48.0447 40.5541 48.5502 37.6426C48.9842 35.1431 48.462 32.6396 47.1882 30.5166C47.782 29.5464 48.1248 28.4066 48.1248 27.1882Z" fill="url(#paint0_linear_261_5)"/>
<defs>
<linearGradient id="paint0_linear_261_5" x1="0" y1="0" x2="49.9716" y2="55.2317" gradientUnits="userSpaceOnUse">
<stop stop-color="#90FF20"/>
<stop offset="1" stop-color="#D2FF20"/>
</linearGradient>
</defs>
</svg>
