<svg width="50" height="50" viewBox="0 0 50 50" fill="none" xmlns="http://www.w3.org/2000/svg">
<path d="M30.5309 0.0101311C30.411 0.0278899 30.2911 0.0634074 30.1757 0.116684C29.199 0.60061 28.0891 2.03907 27.876 2.32321C27.8626 2.34097 27.8493 2.35873 27.8404 2.37649C26.7438 4.01917 26.1578 5.94156 26.1356 7.94386C26.1223 9.44447 26.4153 10.9318 27.0102 12.3658C28.3954 15.6911 31.2723 18.4437 34.6953 19.7312C34.8107 19.7712 34.9217 19.8111 35.1215 19.8822C35.1393 19.8911 35.308 19.9443 35.3346 19.9488L35.4589 19.9932C35.6365 20.0509 35.8186 20.1086 35.9961 20.1441C36.8974 20.3262 37.7765 20.4283 38.6022 20.4549C38.7443 20.4549 38.8864 20.4593 39.0284 20.4593C45.2573 20.4593 47.6725 16.064 48.4761 14.599C48.556 14.4569 48.6137 14.3414 48.667 14.2704C48.667 14.266 48.667 14.266 48.6715 14.2615C49.0222 13.7421 48.889 13.0362 48.3696 12.681C47.8546 12.3303 47.1486 12.4635 46.7935 12.9829H46.789C45.1286 15.4292 42.2872 16.1706 38.3492 15.1939C38.0562 15.1228 37.7365 15.0118 37.4524 14.9053C37.0794 14.7721 36.7065 14.6167 36.3602 14.448C35.672 14.1061 35.0239 13.6977 34.4378 13.2448C30.9749 10.5588 29.6207 4.96926 31.6452 1.74161C31.9161 1.31096 31.8672 0.751558 31.5254 0.374185C31.2679 0.090045 30.8949 -0.0387057 30.5309 0.0101311ZM20.4617 2.27437C20.2042 2.26993 19.9422 2.35429 19.7291 2.53187C18.011 3.93038 16.2528 6.22126 16.1774 6.31449C16.1685 6.33225 16.1596 6.34557 16.1463 6.36333C13.0385 10.8874 12.8032 17.3249 15.5514 22.7635C15.982 23.6248 16.4704 24.4462 16.9898 25.2009L17.1452 25.4229C17.5847 26.0667 18.0776 26.7948 18.708 27.3631C18.9255 27.6117 19.1608 27.8514 19.3917 28.0823L19.5027 28.1977L19.5959 28.291C19.8312 28.5174 20.071 28.7482 20.3196 28.9702H20.324C20.3418 28.9969 20.3684 29.0146 20.3906 29.0368C20.6703 29.2854 20.9545 29.5207 21.3318 29.8182L21.434 29.8937C21.727 30.129 22.0244 30.351 22.3308 30.5685C22.3619 30.5907 22.3929 30.6129 22.424 30.6351C22.5306 30.7061 22.6371 30.7727 22.7437 30.8482L22.8502 30.9192L22.9745 30.9992C23.201 31.1501 23.4229 31.2877 23.7382 31.4698C23.9424 31.5941 24.1599 31.7184 24.302 31.7894C24.3642 31.8249 24.4308 31.8605 24.5861 31.9448L24.9324 32.1268C24.9502 32.1357 25.0301 32.1712 25.0479 32.1801C25.2743 32.2956 25.5096 32.4065 25.7449 32.5131L26.1045 32.6729C26.3398 32.775 26.5796 32.8727 26.8726 32.9837L27.0058 33.0325C27.0147 33.0414 27.1256 33.0814 27.1345 33.0858C27.3476 33.1613 27.5652 33.2368 27.7827 33.3078L28.28 33.4721C28.5286 33.5564 28.8172 33.6541 29.1324 33.7074C30.6818 33.9649 32.1869 34.0981 33.612 34.0981C33.7807 34.0981 33.9494 34.0936 34.1137 34.0936C46.6603 33.8184 49.9234 23.1587 49.9545 23.0521C50.1099 22.5149 49.8569 21.9422 49.3507 21.7025C48.8446 21.4627 48.2408 21.6314 47.9256 22.0931C44.7468 26.7371 38.7354 28.6994 32.6131 27.0834C32.329 27.0123 32.0537 26.9324 31.7118 26.8214C31.6541 26.8037 31.6053 26.7859 31.5121 26.7504C31.3123 26.6882 31.1169 26.6216 30.8949 26.5373L30.5797 26.4174C30.3977 26.3464 30.2157 26.2753 29.9937 26.1777L29.8472 26.1111C29.5764 25.9956 29.3144 25.8669 29.0791 25.7515L28.4309 25.414C28.2844 25.343 28.1557 25.2631 27.9559 25.1432L27.8449 25.0811L27.7339 25.0145C27.5696 24.9168 27.4053 24.8147 27.2544 24.7081L27.1478 24.6415C27.139 24.6371 27.0502 24.5749 27.0413 24.5661C26.9081 24.4817 26.7793 24.3973 26.655 24.3174C26.3798 24.1221 26.109 23.9179 25.7937 23.6692L25.6694 23.5671C22.7392 21.2274 20.5727 18.1019 19.556 14.7499C18.6103 11.6732 19.3118 7.6464 21.434 3.97921C21.7092 3.50417 21.6071 2.90037 21.1853 2.54519C20.9767 2.36761 20.7192 2.27437 20.4617 2.27437ZM7.95506 5.68405C7.68424 5.68405 7.40898 5.78173 7.19144 5.97707C5.02043 7.9261 3.3955 10.4523 3.21791 10.7409C-1.426 17.5025 -0.529184 28.0113 2.65851 34.4355C2.72067 34.5687 2.78726 34.6974 2.85386 34.8262L2.89826 34.8972C2.95597 35.026 3.02257 35.1592 3.04477 35.1858C3.08028 35.2701 3.13356 35.3634 3.15576 35.39C3.20903 35.501 3.26231 35.5987 3.35998 35.7674L3.72404 36.3934C3.77731 36.4777 3.83059 36.5665 3.84835 36.5976C3.91938 36.713 3.99486 36.8329 4.07033 36.9528L4.24792 37.2369C4.3012 37.3213 4.35447 37.3968 4.38999 37.4412C4.56758 37.7164 4.74517 37.9917 4.94051 38.2536C4.94939 38.2669 4.95827 38.2758 4.96715 38.2847L5.03819 38.3824C5.19802 38.6132 5.36228 38.8352 5.50879 39.0172L6.15699 39.8386C6.16587 39.8475 6.2369 39.9318 6.24134 39.9407L6.33458 40.0473C6.52992 40.287 6.73859 40.5267 6.94725 40.7576C6.97833 40.7931 7.00941 40.8242 7.04049 40.8597C7.24027 41.0773 7.4445 41.2948 7.6576 41.5212L7.86183 41.7166C8.03054 41.8942 8.19925 42.0673 8.37683 42.2316C8.37683 42.236 8.46119 42.3159 8.46119 42.3159L8.63877 42.4802C8.85188 42.6844 9.07386 42.8887 9.24257 43.0307C9.25145 43.044 9.41128 43.1817 9.4246 43.1906C9.63327 43.377 9.84193 43.5546 10.055 43.7278L11.1428 44.5891C11.3248 44.7222 11.5113 44.8554 11.7244 45.0108C11.7954 45.0641 11.8709 45.1174 11.9463 45.1662C11.9774 45.1929 12.0129 45.2195 12.0351 45.2328L12.852 45.7789C13.1495 45.9742 13.447 46.1563 13.811 46.3738L14.0064 46.4848C14.2328 46.618 14.4636 46.7512 14.6812 46.8666C14.8099 46.9377 14.9387 46.9998 15.0497 47.0575C15.2051 47.1419 15.3738 47.2351 15.6313 47.3594C15.6535 47.3727 15.8355 47.4615 15.8577 47.4704C16.1152 47.5992 16.3772 47.719 16.7057 47.8655C16.7057 47.87 16.8122 47.9188 16.8122 47.9188C17.1141 48.0476 17.4072 48.1719 17.7934 48.3273C17.8556 48.3539 17.9177 48.3761 17.931 48.3806C18.2063 48.4871 18.4949 48.5937 18.7302 48.678C18.7524 48.6869 18.8723 48.7357 18.8945 48.7446C19.2097 48.8512 19.5205 48.9533 19.92 49.0776C19.9866 49.0998 20.0577 49.122 20.0665 49.122L20.293 49.193C20.5682 49.2774 20.8435 49.3662 21.1409 49.4239C23.2542 49.8101 25.3187 50.0099 27.2722 50.0099H27.2766C43.5569 50.0099 48.7425 36.9084 48.7958 36.7752C48.9956 36.2469 48.778 35.652 48.2808 35.3767C47.7924 35.1059 47.1708 35.2346 46.8245 35.683C42.6468 41.1838 34.7663 43.2261 25.7449 41.1527C25.5274 41.0995 25.3054 41.0373 25.0878 40.9707L24.6616 40.842C24.373 40.7532 24.0845 40.6555 23.8048 40.5578C23.8003 40.5578 23.6716 40.509 23.6716 40.509C23.4229 40.4246 23.1743 40.327 22.9568 40.2426L22.7082 40.1449C22.4329 40.0339 22.1576 39.9185 21.8912 39.7986L21.7359 39.732C21.4961 39.621 21.2653 39.5145 21.0344 39.3991C21.0166 39.3902 20.8346 39.3014 20.8168 39.2969C20.657 39.217 20.4972 39.1327 20.293 39.0217L19.3651 38.5244C19.2718 38.4623 19.1742 38.4046 19.0809 38.3557C18.8012 38.1826 18.5126 38.0094 18.2285 37.8274C18.1619 37.7875 18.1042 37.7431 17.9932 37.6676C17.7979 37.5433 17.6069 37.4145 17.3272 37.2192L17.2163 37.1393C17.0253 37.0061 16.8389 36.864 16.6835 36.7486C16.5858 36.6775 16.4881 36.5976 16.3283 36.4777C16.1862 36.3668 16.0442 36.2602 15.911 36.1536L15.6624 35.9494C15.4537 35.7807 15.2584 35.6031 15.0541 35.43C15.0275 35.4033 15.0053 35.3856 14.9742 35.3634C14.7478 35.1547 14.5169 34.946 14.2417 34.6841L13.4381 33.885C13.2427 33.6852 13.0474 33.4809 12.8254 33.2368C12.6212 33.0103 12.4258 32.7839 12.1639 32.4731L11.6844 31.8871C11.6267 31.8027 11.5645 31.7184 11.4891 31.6296C11.3248 31.4076 11.1605 31.1901 10.9963 30.9592C6.57432 24.868 5.42 12.1527 8.8652 7.49545C9.2115 7.02928 9.14934 6.37221 8.71425 5.97707C8.50114 5.78173 8.22588 5.68405 7.95506 5.68405Z" fill="url(#paint0_linear_261_38)"/>
<defs>
<linearGradient id="paint0_linear_261_38" x1="0" y1="0" x2="50.0087" y2="50.0087" gradientUnits="userSpaceOnUse">
<stop stop-color="#90FF20"/>
<stop offset="1" stop-color="#D2FF20"/>
</linearGradient>
</defs>
</svg>
