<svg width="50" height="48" viewBox="0 0 50 48" fill="none" xmlns="http://www.w3.org/2000/svg">
<path d="M46.25 0H3.75C2.75544 0 1.80161 0.37807 1.09835 1.05104C0.395088 1.72401 0 2.63675 0 3.58847V44.2578C0 45.2095 0.395088 46.1223 1.09835 46.7952C1.80161 47.4682 2.75544 47.8463 3.75 47.8463H46.25C47.2446 47.8463 48.1984 47.4682 48.9016 46.7952C49.6049 46.1223 50 45.2095 50 44.2578V3.58847C50 2.63675 49.6049 1.72401 48.9016 1.05104C48.1984 0.37807 47.2446 0 46.25 0ZM15 40.6693H7.5V19.1385H15V40.6693ZM11.25 14.952C10.3905 14.9285 9.55721 14.6631 8.85438 14.189C8.15154 13.7149 7.61029 13.0532 7.29824 12.2864C6.98619 11.5196 6.91719 10.6819 7.09985 9.8778C7.28251 9.07372 7.70874 8.33898 8.32528 7.76539C8.94182 7.19179 9.72133 6.80478 10.5664 6.6527C11.4115 6.50062 12.2847 6.59022 13.0768 6.9103C13.869 7.23038 14.545 7.76676 15.0205 8.4524C15.4959 9.13805 15.7496 9.94256 15.75 10.7654C15.7303 11.8906 15.2458 12.9626 14.4026 13.7471C13.5594 14.5316 12.426 14.9648 11.25 14.952ZM42.5 40.6693H35V29.3298C35 25.9327 33.5 24.7126 31.55 24.7126C30.9783 24.749 30.4197 24.8932 29.9064 25.1368C29.393 25.3804 28.935 25.7186 28.5587 26.1321C28.1824 26.5456 27.8951 27.0261 27.7134 27.5461C27.5318 28.0662 27.4592 28.6154 27.5 29.1623C27.4876 29.2736 27.4876 29.3859 27.5 29.4972V40.6693H20V19.1385H27.25V22.2485C27.9813 21.1839 28.9861 20.3169 30.168 19.7305C31.3499 19.144 32.6694 18.8578 34 18.8993C37.875 18.8993 42.4 20.9567 42.4 27.6552L42.5 40.6693Z" fill="white"/>
</svg>
