<svg width="50" height="50" viewBox="0 0 50 50" fill="none" xmlns="http://www.w3.org/2000/svg">
<path d="M30.58 10.5799C31.7523 9.40766 33.3422 8.7491 35 8.7491C36.6578 8.7491 38.2477 9.40766 39.42 10.5799C40.5923 11.7522 41.2508 13.3421 41.2508 14.9999C41.2508 16.6577 40.5923 18.2477 39.42 19.4199L36.3575 22.4799C36.0161 22.8337 35.8273 23.3074 35.8318 23.7991C35.8364 24.2907 36.0338 24.7609 36.3816 25.1083C36.7294 25.4558 37.1997 25.6528 37.6914 25.6568C38.183 25.6609 38.6565 25.4716 39.01 25.1299L42.07 22.0699C43.8916 20.1839 44.8995 17.6579 44.8767 15.0359C44.854 12.4139 43.8023 9.90582 41.9482 8.05174C40.0941 6.19765 37.586 5.14596 34.964 5.12318C32.342 5.1004 29.816 6.10834 27.93 7.92992L20.43 15.4299C19.4559 16.4041 18.6935 17.5692 18.1908 18.8519C17.6881 20.1346 17.4559 21.5073 17.5087 22.884C17.5615 24.2607 17.8983 25.6116 18.4977 26.8521C19.0972 28.0925 19.9466 29.1957 20.9925 30.0924C21.3708 30.4083 21.8582 30.5625 22.3493 30.5217C22.8405 30.4809 23.2958 30.2484 23.6168 29.8745C23.9378 29.5005 24.0987 29.0153 24.0647 28.5237C24.0307 28.032 23.8045 27.5736 23.435 27.2474C22.7805 26.6872 22.2489 25.9977 21.8736 25.2222C21.4983 24.4468 21.2874 23.6021 21.254 22.7413C21.2207 21.8804 21.3657 21.0219 21.6799 20.2198C21.9941 19.4176 22.4708 18.6891 23.08 18.0799L30.58 10.5799Z" fill="white"/>
<path d="M29.0075 19.9076C28.6292 19.5918 28.1418 19.4376 27.6507 19.4784C27.1595 19.5192 26.7042 19.7517 26.3832 20.1256C26.0622 20.4995 25.9013 20.9847 25.9353 21.4764C25.9693 21.968 26.1955 22.4265 26.565 22.7526C27.2195 23.3128 27.7511 24.0023 28.1264 24.7778C28.5017 25.5532 28.7126 26.3979 28.746 27.2588C28.7793 28.1196 28.6343 28.9781 28.3201 29.7802C28.0059 30.5824 27.5292 31.3109 26.92 31.9201L19.42 39.4201C18.2477 40.5924 16.6578 41.2509 15 41.2509C13.3422 41.2509 11.7523 40.5924 10.58 39.4201C9.40775 38.2478 8.74918 36.6579 8.74918 35.0001C8.74918 33.3423 9.40775 31.7524 10.58 30.5801L13.6425 27.5201C13.9839 27.1663 14.1727 26.6926 14.1682 26.201C14.1637 25.7094 13.9662 25.2392 13.6184 24.8917C13.2706 24.5442 12.8003 24.3472 12.3086 24.3432C11.817 24.3392 11.3435 24.5284 10.99 24.8701L7.93 27.9301C6.9749 28.8526 6.21308 29.956 5.68899 31.1761C5.1649 32.3961 4.88904 33.7083 4.8775 35.0361C4.86596 36.3639 5.11898 37.6807 5.62179 38.9096C6.1246 40.1386 6.86713 41.2551 7.80605 42.1941C8.74498 43.133 9.8615 43.8755 11.0905 44.3783C12.3194 44.8811 13.6362 45.1341 14.964 45.1226C16.2918 45.1111 17.604 44.8352 18.824 44.3111C20.0441 43.787 21.1475 43.0252 22.07 42.0701L29.57 34.5701C30.5441 33.5959 31.3065 32.4309 31.8092 31.1482C32.3119 29.8654 32.5441 28.4927 32.4913 27.116C32.4385 25.7393 32.1017 24.3884 31.5023 23.1479C30.9028 21.9075 30.0534 20.8043 29.0075 19.9076Z" fill="white"/>
</svg>
