<svg width="19" height="41" viewBox="0 0 19 41" fill="none" xmlns="http://www.w3.org/2000/svg">
<path d="M8.99235 0.11084L10.0759 2.14605C10.3196 2.52163 10.5835 2.85406 10.8943 3.16366C11.8057 4.06368 12.6552 5.02426 13.4371 6.03884C15.2731 8.44963 16.5115 11.1269 17.3959 14.0224C17.9262 15.7911 18.2143 17.6056 18.2358 19.4403C18.3246 24.9255 16.4442 29.6354 12.6529 33.5497C12.0363 34.1705 11.37 34.74 10.6609 35.2525C10.2853 35.2525 10.1077 34.9645 9.95286 34.6993C9.67096 34.2076 9.48334 33.6675 9.39965 33.1069C9.26642 32.4433 9.17887 31.7797 9.22201 31.0946V30.785C9.19156 30.719 8.86039 0.266907 8.99235 0.11084Z" fill="url(#paint0_linear_261_24)"/>
<path d="M8.99234 0.0436518C8.94793 -0.0451667 8.90352 0.0220816 8.85911 0.065222C8.88068 0.509315 8.72588 0.905192 8.48353 1.2833C8.21708 1.65888 7.86434 1.94691 7.51034 2.2565C5.54364 3.95928 3.99566 6.01606 2.75601 8.31646C1.10652 11.4124 0.256402 14.7304 0.0153234 18.2235C-0.0950654 19.4835 0.413738 23.9295 0.810883 25.2123C1.89447 28.6178 3.84086 31.4714 6.36204 33.9482C6.98123 34.5446 7.64357 35.0978 8.32874 35.6294C8.52794 35.6294 8.54951 35.4518 8.59519 35.3198C8.68253 35.0375 8.74911 34.7491 8.7944 34.457L9.23849 31.1403L8.99234 0.0436518Z" fill="url(#paint1_linear_261_24)"/>
<path d="M10.0759 36.6C10.1203 36.0925 10.3639 35.6713 10.6291 35.2513C10.3627 35.1409 10.1647 34.9214 10.0099 34.6765C9.87646 34.4446 9.76597 34.2003 9.68005 33.9469C9.37045 33.0181 9.30447 32.0436 9.21565 31.0946V30.5198C9.10526 30.6086 9.08242 31.3597 9.08242 31.4714C9.01786 32.4745 8.88474 33.472 8.68401 34.457C8.61803 34.8554 8.57362 35.2525 8.32874 35.6065C8.32874 35.6509 8.32874 35.6954 8.35031 35.7613C8.74872 36.9337 8.85784 38.1277 8.92509 39.3445V39.7886C8.92509 40.319 8.90352 40.2073 9.3438 40.385C9.52144 40.451 9.71938 40.4738 9.89702 40.6058C10.0302 40.6058 10.0518 40.4954 10.0518 40.4065L9.98584 39.677V37.6418C9.96427 37.2865 10.0302 36.9337 10.0747 36.6013L10.0759 36.6Z" fill="url(#paint2_linear_261_24)"/>
<defs>
<linearGradient id="paint0_linear_261_24" x1="13.6001" y1="0.11084" x2="13.6001" y2="35.2525" gradientUnits="userSpaceOnUse">
<stop stop-color="#90FF20"/>
<stop offset="1" stop-color="#D2FF20"/>
</linearGradient>
<linearGradient id="paint1_linear_261_24" x1="4.61925" y1="0" x2="4.61925" y2="35.6294" gradientUnits="userSpaceOnUse">
<stop stop-color="#90FF20"/>
<stop offset="1" stop-color="#61AE13"/>
</linearGradient>
<linearGradient id="paint2_linear_261_24" x1="9.47894" y1="30.5198" x2="9.47894" y2="40.6058" gradientUnits="userSpaceOnUse">
<stop stop-color="#90FF20"/>
<stop offset="1" stop-color="#D2FF20"/>
</linearGradient>
</defs>
</svg>
