<svg width="50" height="55" viewBox="0 0 50 55" fill="none" xmlns="http://www.w3.org/2000/svg">
<path d="M22.6319 0.584931C23.9914 -0.193219 25.7621 -0.196734 27.1204 0.584931C33.9539 4.4462 40.7895 8.30141 47.6218 12.165C48.9069 12.8889 49.7664 14.319 49.7533 15.7998V39.0306C49.7629 40.5727 48.8184 42.037 47.4626 42.7445C40.6516 46.5844 33.8441 50.4291 27.0343 54.2691C25.6467 55.0625 23.8405 55.0013 22.4962 54.1429C20.4543 52.9592 18.4088 51.7814 16.3667 50.5988C15.9494 50.35 15.479 50.152 15.1843 49.7474C15.4448 49.3963 15.9106 49.3526 16.289 49.1993C17.1413 48.9283 17.9242 48.4932 18.7072 48.071C18.9052 47.9355 19.147 47.9875 19.3368 48.1087C21.0829 49.1099 22.8135 50.1401 24.5655 51.1317C24.9392 51.3475 25.3177 51.061 25.6371 50.8829C32.3208 47.1054 39.0127 43.3422 45.6953 39.5635C45.9429 39.4444 46.0797 39.1816 46.0596 38.9103C46.0643 31.247 46.0608 23.5822 46.062 15.9189C46.0903 15.6111 45.9122 15.3282 45.6339 15.2022C38.8466 11.3798 32.0627 7.55157 25.2765 3.72819C25.1589 3.64736 25.0196 3.60399 24.8769 3.60378C24.7343 3.60357 24.5949 3.64653 24.477 3.72702C17.6908 7.55157 10.9081 11.3834 4.12192 15.2056C3.84464 15.3317 3.65855 15.61 3.69155 15.9189C3.69272 23.5822 3.69155 31.247 3.69155 38.9115C3.67978 39.0438 3.70885 39.1766 3.77483 39.2919C3.84082 39.4072 3.94055 39.4996 4.06061 39.5565C5.87154 40.5834 7.68482 41.6031 9.49692 42.6265C10.5178 43.176 11.7712 43.5025 12.896 43.0815C13.8885 42.7255 14.5843 41.7127 14.5653 40.6588C14.5747 33.0401 14.5607 25.4203 14.5724 17.8028C14.5476 17.4646 14.8684 17.1852 15.1972 17.217C16.0674 17.2112 16.9387 17.2053 17.8088 17.2194C18.172 17.2112 18.4219 17.5754 18.377 17.9161C18.3735 25.583 18.3864 33.2501 18.3711 40.9169C18.3735 42.9602 17.534 45.1836 15.644 46.1834C13.3156 47.3895 10.4377 47.1337 8.13745 45.9772C6.14609 44.9832 4.24572 43.8102 2.28971 42.7454C0.930434 42.0419 -0.00940015 40.5717 0.000168069 39.0308V15.7998C-0.0140866 14.2884 0.879663 12.8323 2.20476 12.1189C9.0146 8.27583 15.8233 4.42979 22.6319 0.584931Z" fill="url(#paint0_linear_261_19)"/>
<path d="M28.5728 16.677C31.5429 16.4859 34.7225 16.5638 37.3951 18.0269C39.4644 19.1482 40.6116 21.5014 40.6481 23.8003C40.5903 24.1104 40.2662 24.2814 39.9701 24.2601C39.1084 24.259 38.2465 24.2719 37.3848 24.2543C37.0192 24.2683 36.8068 23.9313 36.7609 23.6081C36.5133 22.5082 35.9134 21.4188 34.8781 20.8882C33.2888 20.0925 31.446 20.1325 29.713 20.1491C28.4479 20.2163 27.0874 20.3259 26.0156 21.0698C25.1927 21.6334 24.9428 22.771 25.2364 23.6872C25.5133 24.3451 26.2727 24.5573 26.8941 24.753C30.4734 25.6891 34.2663 25.596 37.7773 26.8279C39.2308 27.3302 40.6528 28.3065 41.1504 29.8285C41.8012 31.8682 41.5159 34.3064 40.0647 35.9439C38.8878 37.2915 37.1737 38.0249 35.4641 38.4233C33.1898 38.9304 30.8296 38.9433 28.5199 38.7181C26.3481 38.4705 24.0881 37.8999 22.4115 36.4202C20.9778 35.1753 20.2776 33.2357 20.3471 31.3637C20.3637 31.0475 20.6785 30.8271 20.9813 30.853C21.8491 30.846 22.7169 30.8437 23.5847 30.8542C23.9313 30.8294 24.1882 31.129 24.206 31.4556C24.3661 32.5037 24.76 33.6036 25.6739 34.225C27.4375 35.3628 29.6505 35.2849 31.67 35.3167C33.3431 35.2425 35.2212 35.2201 36.5865 34.1142C37.3069 33.4835 37.5203 32.4283 37.3256 31.5205C37.1147 30.754 36.3129 30.3969 35.6244 30.1633C32.091 29.0456 28.2557 29.4512 24.7565 28.1872C23.3359 27.6852 21.9622 26.736 21.4164 25.2765C20.6548 23.211 21.0038 20.6561 22.6071 19.0738C24.1705 17.4999 26.4272 16.894 28.5728 16.677Z" fill="url(#paint1_linear_261_19)"/>
<defs>
<linearGradient id="paint0_linear_261_19" x1="0.499998" y1="0.500001" x2="47.5" y2="53" gradientUnits="userSpaceOnUse">
<stop stop-color="#90FF20"/>
<stop offset="1" stop-color="#D2FF20"/>
</linearGradient>
<linearGradient id="paint1_linear_261_19" x1="20.5548" y1="16.8043" x2="39.5188" y2="38.975" gradientUnits="userSpaceOnUse">
<stop stop-color="#90FF20"/>
<stop offset="1" stop-color="#D2FF20"/>
</linearGradient>
</defs>
</svg>
