<svg width="50" height="60" viewBox="0 0 50 60" fill="none" xmlns="http://www.w3.org/2000/svg">
<path d="M22.4792 24.9605C21.6195 25.4829 20.9263 26.2619 20.4873 27.1991C20.0482 28.1362 19.8831 29.1893 20.0126 30.2253C20.1422 31.2612 20.5607 32.2335 21.2152 33.0191C21.8697 33.8047 22.7309 34.3683 23.6897 34.6387C24.6485 34.9091 25.662 34.8742 26.602 34.5383C27.5419 34.2024 28.3661 33.5806 28.9704 32.7516C29.5746 31.9226 29.9318 30.9236 29.9967 29.881C30.0616 28.8383 29.8312 27.7988 29.3349 26.8939C28.6693 25.6806 27.5731 24.7953 26.2874 24.4327C25.0017 24.0702 23.6319 24.26 22.4792 24.9605ZM44.9741 30.6924C44.6446 30.296 44.2969 29.8985 43.9311 29.5C44.1866 29.2173 44.4339 28.9348 44.673 28.6525C49.1857 23.3153 51.0903 17.9627 49.3255 14.7448C47.6333 11.6595 42.5994 10.74 36.2975 12.0298C35.6768 12.1577 35.0595 12.3019 34.4456 12.4624C34.3281 12.036 34.2031 11.612 34.0706 11.1904C31.9327 4.40885 28.4792 -0.00233599 24.9495 9.2807e-07C21.5648 0.0016279 18.2936 4.13277 16.2067 10.5235C16.0014 11.154 15.8115 11.7897 15.6369 12.4307C15.2265 12.3247 14.8143 12.2268 14.4004 12.1369C7.75147 10.6999 2.39612 11.6463 0.634762 14.8661C-1.05418 17.9537 0.712129 23.0004 4.93021 28.0951C5.34854 28.5992 5.77871 29.092 6.22072 29.5735C5.69965 30.1385 5.20623 30.7032 4.74634 31.2647C0.630492 36.2876 -1.03482 41.2518 0.651399 44.326C2.39286 47.5015 7.67284 48.5395 14.0994 47.2083C14.6202 47.0996 15.1382 46.9773 15.6532 46.8415C15.8419 47.5348 16.0489 48.2221 16.2742 48.9033C18.3518 55.1658 21.6047 59.1639 24.9774 59.1627C28.4605 59.1605 31.9522 54.8649 34.0677 48.3396C34.2348 47.824 34.393 47.2885 34.5429 46.7371C35.2082 46.9113 35.8778 47.0659 36.5517 47.2009C42.7437 48.4341 47.6592 47.4642 49.3423 44.3877C51.0804 41.2099 49.2884 35.8801 44.9741 30.6924ZM2.71542 16.1272C3.79977 14.1453 8.17635 13.3721 13.9172 14.6127C14.2841 14.6921 14.6573 14.7808 15.0367 14.8789C14.4762 17.4887 14.0808 20.1348 13.8529 22.7998C11.7815 24.3337 9.80654 26.0072 7.94049 27.8097C7.52935 27.3621 7.1292 26.9037 6.74002 26.4344C3.12588 22.0691 1.69759 17.9878 2.71542 16.1272ZM13.6378 33.0716C12.203 31.928 10.8696 30.7565 9.65933 29.5781C10.8687 28.4071 12.203 27.2394 13.6349 26.0989C13.5834 27.2607 13.5579 28.4235 13.5584 29.5871C13.5591 30.749 13.5856 31.9105 13.6378 33.0716ZM13.6361 44.7284C11.2003 45.2985 8.68575 45.3919 6.21791 45.004C5.54139 44.9485 4.88287 44.7476 4.28302 44.4137C3.68318 44.0798 3.15476 43.6199 2.73043 43.0625C1.70731 41.1969 3.0445 37.2113 6.56446 32.9155C7.007 32.3771 7.46404 31.8528 7.9356 31.3425C9.80193 33.1544 11.7801 34.8344 13.8571 36.3715C14.0881 39.0705 14.4882 41.7505 15.0548 44.394C14.5846 44.5177 14.1117 44.6292 13.6361 44.7284ZM33.5918 20.947C32.6493 20.3219 31.6951 19.7168 30.7293 19.1318C29.7789 18.5559 28.817 18.0017 27.8437 17.4691C29.5102 16.7315 31.1483 16.1016 32.7297 15.5883C33.1025 17.3581 33.3902 19.1466 33.5918 20.947ZM18.4774 11.345C20.2653 5.86913 22.9109 2.52825 24.9508 2.52733C27.1233 2.52624 29.946 6.1311 31.7918 11.9863C31.9117 12.368 32.025 12.7519 32.1318 13.1379C29.7069 13.9296 27.3345 14.8893 25.03 16.0108C22.735 14.8761 20.37 13.9057 17.951 13.1061C18.1127 12.5146 18.2882 11.9276 18.4774 11.345ZM17.3523 15.5568C19.0018 16.1034 20.6241 16.7373 22.213 17.4559C20.2443 18.5254 18.3265 19.6903 16.4595 20.9506C16.685 19.0633 16.9852 17.2551 17.3523 15.5568ZM16.4636 38.218C17.3946 38.8454 18.3393 39.4496 19.2975 40.0306C20.275 40.623 21.2655 41.1905 22.2689 41.7331C20.6679 42.4766 19.0317 43.1331 17.3667 43.7001C16.9953 41.9782 16.6919 40.1382 16.4636 38.218ZM31.7953 47.5228C31.0477 50.0287 29.8682 52.3684 28.316 54.4249C27.9324 55.014 27.4379 55.5142 26.8635 55.8942C26.2891 56.2743 25.6467 56.5263 24.9761 56.6348C22.9297 56.636 20.3177 53.4252 18.5409 48.0697C18.3317 47.4365 18.1392 46.7975 17.9634 46.1528C20.394 45.3274 22.7686 44.3295 25.071 43.166C27.3944 44.2948 29.7858 45.2617 32.2296 46.0605C32.0961 46.5515 31.9514 47.039 31.7953 47.5228ZM32.8132 43.6056C31.2136 43.085 29.5518 42.4445 27.8613 41.6961C28.8142 41.1682 29.7741 40.6107 30.7409 40.0235C31.733 39.4205 32.6998 38.8023 33.6414 38.1691C33.4538 39.995 33.1774 41.8095 32.8132 43.6056ZM34.0674 29.5762C34.0695 31.3727 34.0162 33.1677 33.9076 34.9613C32.523 35.9476 31.0613 36.9107 29.5405 37.8349C28.026 38.7553 26.5253 39.6012 25.0533 40.3667C23.5043 39.5853 21.9851 38.7433 20.4958 37.8405C19.0149 36.9432 17.5679 35.9877 16.1549 34.9741C16.0258 33.1811 15.9607 31.3848 15.9597 29.5852C15.9585 27.7869 16.0225 25.9911 16.151 24.1965C17.5352 23.2015 18.9862 22.2392 20.4865 21.3274C21.9937 20.4113 23.5131 19.5691 25.0242 18.8057C26.5541 19.5884 28.0565 20.4271 29.5313 21.322C31.0112 22.2173 32.4622 23.1626 33.8843 24.1579C34.0064 25.9612 34.0673 27.7673 34.0674 29.5762ZM36.756 14.511C42.1554 13.4055 46.2265 14.1491 47.2463 16.0084C48.3328 17.9892 46.7757 22.364 42.8797 26.9723C42.6645 27.2265 42.441 27.482 42.2096 27.7384C40.3112 25.9321 38.2982 24.2639 36.1846 22.7455C35.9713 20.1097 35.5906 17.4919 35.0452 14.9096C35.6265 14.759 36.1968 14.6262 36.756 14.511ZM36.3911 26.0024C37.8168 27.0981 39.1875 28.271 40.4978 29.5162C39.1933 30.7819 37.8269 31.9749 36.4041 33.0905C36.4476 31.9193 36.4691 30.7474 36.4684 29.575C36.4679 28.3839 36.4421 27.193 36.3911 26.0024ZM47.2613 43.1263C46.2399 44.9933 42.2931 45.7719 36.9977 44.7173C36.3909 44.5967 35.7682 44.4531 35.1297 44.2866C35.662 41.6712 36.0257 39.0208 36.2185 36.3537C38.3286 34.8087 40.3352 33.1128 42.2242 31.2779C42.5547 31.6393 42.8691 31.9991 43.1674 32.3572C44.8565 34.2905 46.1931 36.5344 47.1103 38.9771C47.4036 39.621 47.5684 40.3215 47.5943 41.0352C47.6203 41.7489 47.5069 42.4605 47.2613 43.1263Z" fill="url(#paint0_linear_168_31)"/>
<defs>
<linearGradient id="paint0_linear_168_31" x1="3.64227" y1="2.3665" x2="43.2893" y2="54.8688" gradientUnits="userSpaceOnUse">
<stop stop-color="#90FF20"/>
<stop offset="1" stop-color="#D2FF20"/>
</linearGradient>
</defs>
</svg>
