<svg width="50" height="53" viewBox="0 0 50 53" fill="none" xmlns="http://www.w3.org/2000/svg">
<path d="M3.32953 32.1648C2.34018 29.0826 2.05479 25.8292 2.62557 22.4806C2.87291 21.0917 3.25342 19.7599 3.67199 18.4091C3.67199 18.4091 6.29756 9.79037 15.1826 5.85202C15.1826 5.85202 18.2458 4.23482 22.8501 4.12066C22.8501 4.12066 22.2222 3.51184 21.8227 3.24547C19.6537 1.79951 16.4193 1.32386 14.4597 3.35963C13.8699 3.96846 13.3752 4.63436 12.8234 5.24319C12.1956 5.92812 11.4345 6.4989 10.5594 6.82234C9.79832 7.10773 9.03729 7.05065 8.25723 7.18383C7.45814 7.31701 6.64003 7.6024 5.99315 8.1161C5.28919 8.68687 5.0038 9.44791 4.9277 10.3231C4.8516 11.008 4.87062 11.712 4.83257 12.3969C4.73744 14.4137 4.09056 14.9844 2.64459 16.107C2.03577 16.5636 1.52207 17.1724 1.14155 17.8193C-1.29399e-06 19.836 1.82648 21.9289 1.92161 23.9646C1.94064 24.3832 1.90259 24.8018 1.75038 25.2013C1.59817 25.6389 1.29376 25.9243 1.04642 26.2858C0.703956 26.7615 0.475646 27.3322 0.570775 27.922C0.665904 28.5118 0.970318 29.0636 1.25571 29.5773C1.80746 30.4905 2.49239 31.3086 3.21537 32.0887C3.25342 32.0887 3.29147 32.1268 3.32953 32.1648Z" fill="#90FF20"/>
<path d="M39.6309 39.4706C44.0069 37.568 45.8714 34.2765 45.8714 34.2765C49.962 28.702 48.5731 22.823 48.5731 22.823C45.9665 28.4927 43.5883 30.0528 43.5883 30.0528C50 20.2925 43.6263 14.3945 43.6263 14.3945C46.2329 19.9501 42.7702 26.7233 42.7702 26.7233C39.8592 32.8496 35.7306 35.0376 35.7306 35.0376C40.3349 35.8937 43.7215 32.7925 43.7215 32.7925C37.1195 39.9272 29.9658 39.5848 29.9658 39.5848C32.9718 42.9523 37.481 42.667 37.481 42.667C31.583 44.0558 26.0464 42.0962 21.4992 38.31C20.6431 37.6061 19.825 36.845 19.0639 36.0269C19.0639 36.0269 18.379 35.3039 18.2458 35.1137L18.2268 35.0947C18.1317 38.6144 21.8037 41.8869 21.8037 41.8869C17.1994 39.9843 15.0875 35.8557 15.0875 35.8557C15.0875 35.8557 11.9863 30.5665 14.2314 24.5353C16.4764 18.5041 23.2686 17.2103 23.2686 17.2103C28.8813 19.931 33.6377 20.7872 33.6377 20.7872C43.6644 22.4615 43.0936 17.5528 43.0936 17.5528C43.1887 13.3291 36.8151 8.83895 36.8151 8.83895C25.4566 0.410486 15.1827 5.85189 15.1827 5.85189C6.29757 9.79024 3.672 18.409 3.672 18.409C3.25343 19.7598 2.87291 21.0916 2.62557 22.4805C1.65525 28.1312 3.12025 33.4775 6.29757 38.2339C11.2443 45.616 19.2732 48.1654 19.2732 48.1654C31.1644 52.1989 39.2884 46.2628 39.2884 46.2628C46.7656 41.1259 48.2686 35.1898 48.2686 35.1898C42.2374 39.9082 39.6309 39.4706 39.6309 39.4706ZM30.3463 11.7119C30.9171 11.7119 31.3737 12.1685 31.3737 12.7393C31.3737 13.31 30.9171 13.7666 30.3463 13.7666C29.7755 13.7666 29.3189 13.31 29.3189 12.7393C29.3189 12.1685 29.7755 11.7119 30.3463 11.7119Z" fill="url(#paint0_linear_168_15)"/>
<path d="M43.0746 17.5338C43.1697 13.31 36.796 8.81991 36.796 8.81991C25.4376 0.410478 15.1636 5.85188 15.1636 5.85188C6.27854 9.79023 3.65297 18.409 3.65297 18.409C3.13927 19.8739 2.68265 22.119 2.68265 22.119C2.1309 24.9348 2.37823 27.5414 2.37823 27.5414C2.60654 30.0338 3.15829 31.708 3.15829 31.708C3.72907 33.4965 3.99543 34.0482 3.99543 34.0482C3.97641 33.9911 3.88128 33.5726 3.88128 33.5726C3.88128 33.5726 3.08219 29.7294 3.8242 26.0383C3.8242 26.0383 4.47108 22.1951 7.09665 19.2271C7.09665 19.2271 11.3584 13.1578 19.2922 15.536C19.2922 15.536 21.0046 16.1449 21.5944 16.4493C22.1842 16.7347 23.2116 17.1723 23.2116 17.1723C28.8242 19.893 33.5807 20.7491 33.5807 20.7491C43.6454 22.4424 43.0746 17.5338 43.0746 17.5338ZM30.3463 13.7857C29.7755 13.7857 29.3189 13.329 29.3189 12.7583C29.3189 12.1875 29.7755 11.7309 30.3463 11.7309C30.917 11.7309 31.3737 12.1875 31.3737 12.7583C31.3737 13.329 30.917 13.7857 30.3463 13.7857Z" fill="url(#paint1_radial_168_15)"/>
<path d="M23.8394 9.88544L17.3516 7.8687C17.3135 7.8687 17.1233 7.77357 16.7808 7.8687C16.7808 7.8687 12.9566 8.83902 13.6225 10.9319C13.6225 10.9319 14.0221 12.2446 15.1065 13.5194L22.2412 13.1769L23.8394 9.88544Z" fill="url(#paint2_linear_168_15)"/>
<defs>
<linearGradient id="paint0_linear_168_15" x1="7.87595" y1="45.9396" x2="31.551" y2="20.7535" gradientUnits="userSpaceOnUse">
<stop stop-color="#90FF20"/>
<stop offset="1" stop-color="#D2FF20"/>
</linearGradient>
<radialGradient id="paint1_radial_168_15" cx="0" cy="0" r="1" gradientUnits="userSpaceOnUse" gradientTransform="translate(33.9337 14.0717) rotate(0.136937) scale(23.1321 19.3431)">
<stop stop-color="#90FF20"/>
<stop offset="1" stop-color="#D2FF20"/>
</radialGradient>
<linearGradient id="paint2_linear_168_15" x1="13.5297" y1="10.6723" x2="23.8339" y2="10.6723" gradientUnits="userSpaceOnUse">
<stop stop-color="#90FF20"/>
<stop offset="0.999" stop-color="#D2FF20"/>
</linearGradient>
</defs>
</svg>
