<svg width="50" height="38" viewBox="0 0 50 38" fill="none" xmlns="http://www.w3.org/2000/svg">
<path d="M43.049 21.5528C41.479 21.5549 39.93 21.9139 38.5191 22.6027C38.0774 21.8697 37.7363 21.0805 37.5049 20.2565C37.372 19.6106 37.3413 18.9479 37.4139 18.2925C37.5665 17.5712 37.7645 16.8604 38.0067 16.1641C37.9977 16.073 37.8977 15.6427 36.8925 15.6284C35.8872 15.6142 35.0213 15.8195 34.9284 16.0855C34.7538 16.5715 34.6136 17.0691 34.5088 17.5747C33.6768 19.6272 32.6527 21.5964 31.4502 23.4562C30.7764 22.3517 30.4993 21.0505 30.6646 19.7673C30.8172 19.0461 31.0152 18.3352 31.2574 17.639C31.2484 17.5479 31.1484 17.1176 30.1432 17.1033C29.1379 17.089 28.2719 17.2944 28.1791 17.5604C28.0862 17.8264 27.9684 18.4532 27.7595 19.0495C27.5506 19.6459 25.1116 25.0953 24.4723 26.5006C24.1438 27.2148 23.8599 27.7968 23.6599 28.1897C23.6504 28.2152 23.6385 28.2397 23.6242 28.2629C23.4457 28.6003 23.351 28.7842 23.351 28.7842V28.7932C23.2135 29.0396 23.0671 29.2681 22.9939 29.2681C22.8662 28.758 22.8724 28.2236 23.0118 27.7165C23.3689 25.8256 24.2438 22.8866 24.2349 22.7849C24.2349 22.7295 24.3991 22.2188 23.6688 21.9546C23.4995 21.874 23.3093 21.8479 23.1244 21.8799C22.9396 21.9118 22.7693 22.0003 22.6368 22.1331C22.5725 22.1331 22.5279 22.2885 22.5279 22.2885C22.5279 22.2885 23.3224 18.9835 21.012 18.9835C20.1122 19.1644 19.2578 19.5235 18.4988 20.0396C17.7399 20.5557 17.0919 21.2183 16.5928 21.9885C15.9714 22.326 14.6483 23.0473 13.2324 23.824C12.6968 24.1258 12.1361 24.4276 11.6165 24.7168C11.5808 24.6811 11.5433 24.6347 11.5076 24.599C8.69537 21.6028 3.52626 19.4888 3.74945 15.4802C3.83158 14.0197 4.33332 10.1844 13.6752 5.52591C21.3637 1.73701 27.4827 2.7869 28.5416 5.11523C30.0575 8.4399 25.2633 14.6125 17.3195 15.507C16.4407 15.6853 15.533 15.6638 14.6636 15.4441C13.7942 15.2243 12.9854 14.812 12.2968 14.2375C11.8772 13.7804 11.8129 13.7536 11.6576 13.8447C11.4022 13.9822 11.5665 14.3929 11.6576 14.6303C11.9606 15.1788 12.3705 15.6609 12.863 16.0482C13.3556 16.4356 13.9207 16.7202 14.5251 16.8855C17.6502 17.5608 20.9085 17.2379 23.8403 15.9623C28.6612 14.1 32.4108 8.92199 31.3109 4.58493C30.2057 0.183594 22.9011 -1.26804 15.9875 1.19242C11.6571 2.64955 7.65589 4.94472 4.2119 7.94709C0.403364 11.5092 -0.198361 14.6036 0.0480425 15.9016C0.940808 20.5047 7.28123 23.4991 9.81847 25.7221C9.68991 25.7953 9.57207 25.8595 9.47208 25.9131C8.20257 26.5434 3.36378 29.0735 2.1514 31.7482C0.781896 34.7836 2.37102 36.9531 3.42091 37.2459C5.0029 37.6246 6.66366 37.4998 8.17134 36.8891C9.67901 36.2783 10.9584 35.212 11.8308 33.8391C12.5737 32.7003 13.0303 31.3988 13.1618 30.0455C13.2933 28.6922 13.0958 27.3272 12.586 26.0667C12.5774 26.0463 12.5654 26.0276 12.5503 26.0113L13.5449 25.4274C14.193 25.0436 14.8322 24.6882 15.3804 24.3954C15.0087 25.4675 14.7905 26.5868 14.7323 27.7201C14.6061 29.457 15.1376 31.1778 16.2214 32.541C16.3863 32.683 16.5777 32.7908 16.7846 32.8582C16.9915 32.9256 17.2097 32.9513 17.4266 32.9338C18.4979 32.9338 18.989 32.0411 19.5264 30.9805C20.1835 29.6842 20.7763 28.1772 20.7763 28.1772C20.7763 28.1772 20.0371 32.25 22.0458 32.25C22.7761 32.25 23.5153 31.3001 23.8456 30.8215V30.8305C23.8456 30.8305 23.8635 30.8037 23.901 30.7394L24.0188 30.5484V30.5305C24.3116 30.0198 24.9687 28.8592 25.9454 26.9327C27.206 24.449 28.4201 21.3439 28.4201 21.3439C28.5373 22.0263 28.6989 22.7003 28.904 23.3616C29.1981 24.1632 29.5459 24.944 29.945 25.6988C29.6522 26.1095 29.47 26.3381 29.47 26.3381L29.479 26.347C29.2415 26.6577 28.9862 26.9951 28.7023 27.3237C27.8576 28.2523 27.0739 29.2346 26.3561 30.2645C26.2494 30.4374 26.2128 30.6446 26.2536 30.8436C26.2944 31.0427 26.4096 31.2187 26.5757 31.3358C26.9516 31.5314 27.38 31.602 27.7988 31.5375C28.4299 31.5019 29.0504 31.3601 29.6343 31.1179C30.1986 30.9194 30.7309 30.6397 31.2145 30.2877C31.7131 29.9423 32.1144 29.4744 32.3799 28.929C32.6454 28.3837 32.7661 27.7792 32.7304 27.1737C32.6743 26.411 32.4794 25.6649 32.1555 24.9721C32.2465 24.8436 32.334 24.7168 32.4197 24.5882C33.4349 23.073 34.3498 21.493 35.1587 19.8584C35.2758 20.5408 35.4375 21.2148 35.6426 21.876C35.8852 22.5687 36.1838 23.2405 36.5354 23.8847C35.3675 24.7832 34.4477 25.9643 33.8624 27.3165C33.2875 28.9789 33.7339 29.727 34.5767 29.9002C35.0378 29.932 35.4989 29.8376 35.9104 29.627C36.5155 29.4282 37.0855 29.1353 37.5996 28.7593C38.1416 28.4394 38.5955 27.9898 38.9206 27.4509C39.2457 26.912 39.4317 26.3007 39.4619 25.6721C39.4213 25.0446 39.2796 24.4277 39.0423 23.8455C40.5834 23.2434 42.2543 23.0514 43.8918 23.2884C48.2378 23.799 49.0966 26.5113 48.9323 27.654C48.8553 28.0591 48.6924 28.443 48.4547 28.78C48.2169 29.1169 47.9098 29.399 47.5539 29.6074C47.2521 29.7984 47.1522 29.8627 47.1789 30.0002C47.2147 30.202 47.3575 30.1912 47.6164 30.1555C48.2714 29.952 48.8493 29.5546 49.2739 29.0159C49.6985 28.4772 49.9498 27.8224 49.9947 27.138C50.1322 24.4597 47.5753 21.5225 43.0544 21.5493L43.049 21.5528ZM9.51672 32.8517C8.07401 34.423 6.06528 35.0158 5.19752 34.514C4.26547 33.9784 4.6315 31.6572 6.40275 29.9931C7.45345 29.0472 8.58909 28.2003 9.79526 27.463C10.006 27.3344 10.3166 27.1523 10.688 26.9273L10.788 26.8719L11.0076 26.7345C11.3241 27.7947 11.3528 28.92 11.0908 29.995C10.8288 31.07 10.2855 32.0559 9.51672 32.8517ZM20.0174 25.7096C19.5157 26.9327 18.4658 30.0663 17.8266 29.8913C17.2784 29.7449 16.9338 27.3701 17.7177 25.0239C18.1134 23.8945 18.6899 22.8368 19.4246 21.8921C20.2103 21.0154 21.078 20.7226 21.2869 21.0797C21.0964 22.6775 20.6685 24.238 20.0174 25.7096ZM28.6826 29.8556C28.4719 29.9645 28.2719 30.0341 28.1809 29.9841C28.1166 29.9484 28.2719 29.8056 28.2719 29.8056C28.2719 29.8056 29.3593 28.6361 29.7879 28.1075C30.0343 27.7969 30.3235 27.4326 30.6378 27.0201V27.138C30.6378 28.5343 29.2861 29.4753 28.6844 29.8591L28.6826 29.8556ZM35.3676 28.3307C35.2123 28.2218 35.2391 27.8558 35.7605 26.7148C36.123 25.9821 36.6294 25.3299 37.2496 24.7972C37.3447 25.0674 37.3941 25.3516 37.396 25.6381C37.403 26.248 37.2081 26.843 36.8415 27.3304C36.4749 27.8178 35.9573 28.1701 35.3694 28.3325L35.3676 28.3307Z" fill="url(#paint0_linear_168_14)"/>
<defs>
<linearGradient id="paint0_linear_168_14" x1="0.237897" y1="2.08103" x2="41.1861" y2="33.9825" gradientUnits="userSpaceOnUse">
<stop stop-color="#90FF20"/>
<stop offset="1" stop-color="#D2FF20"/>
</linearGradient>
</defs>
</svg>
