<svg width="50" height="66" viewBox="0 0 50 66" fill="none" xmlns="http://www.w3.org/2000/svg">
<path d="M37.2288 0.663067L36.9173 8.06782C36.9136 8.16148 36.9353 8.25433 36.98 8.33543C37.0246 8.41653 37.0904 8.4825 37.1695 8.52557C37.2486 8.56864 37.3378 8.58701 37.4264 8.57853C37.5151 8.57004 37.5997 8.53505 37.6701 8.47768L40.4216 6.29177L42.7578 8.20444C42.8264 8.25286 42.906 8.28127 42.9884 8.28679C43.0708 8.29231 43.1531 8.27473 43.227 8.23586C43.3009 8.19698 43.3636 8.13819 43.4089 8.06547C43.4541 7.99276 43.4803 7.90872 43.4846 7.82191L43.225 0.280533L46.6774 0.00729526C47.1036 -0.0226802 47.5311 0.0399292 47.9333 0.191232C48.3355 0.342536 48.7039 0.579299 49.0155 0.886809C49.3271 1.19432 49.5753 1.566 49.7447 1.97876C49.914 2.39152 50.0009 2.83654 50 3.28615V62.3056C50.0005 62.7503 49.9151 63.1905 49.7489 63.5994C49.5827 64.0083 49.3392 64.3773 49.0333 64.684C48.7273 64.9908 48.3653 65.2287 47.9692 65.3835C47.5732 65.5383 47.1513 65.6067 46.7293 65.5845L4.93755 63.6171C4.15176 63.5831 3.4073 63.2374 2.8536 62.6495C2.29991 62.0616 1.97797 61.275 1.95242 60.4476L0.00559952 6.34642C-0.0189698 5.91567 0.0374781 5.48405 0.171707 5.07632C0.305936 4.66858 0.515306 4.29274 0.78781 3.97036C1.06031 3.64797 1.39059 3.38538 1.75971 3.19764C2.12883 3.00989 2.52952 2.90069 2.93881 2.8763L37.2029 0.608419L37.2288 0.663067ZM29.2598 25.4184C29.2598 26.7027 37.4625 26.0742 38.5786 25.1999C38.5786 16.4562 34.1139 11.8385 25.9632 11.8385C17.7866 11.8385 13.244 16.5382 13.244 23.5604C13.244 35.7195 28.8186 35.9381 28.8186 42.5778C28.8186 44.4905 27.9879 45.5834 26.093 45.5834C23.6011 45.5834 22.5887 44.2446 22.7185 39.6815C22.7185 38.6978 13.244 38.3699 12.9325 39.6815C12.2316 50.693 18.721 53.8899 26.1709 53.8899C33.4131 53.8899 39.0718 49.8186 39.0718 42.4685C39.0718 29.435 23.2377 29.7903 23.2377 23.3418C23.2377 20.6914 25.1066 20.3362 26.1709 20.3362C27.339 20.3362 29.4156 20.5275 29.2598 25.4458V25.4184Z" fill="url(#paint0_linear_168_33)"/>
<defs>
<linearGradient id="paint0_linear_168_33" x1="-0.202059" y1="0.00728492" x2="48.8768" y2="59.8637" gradientUnits="userSpaceOnUse">
<stop stop-color="#90FF20"/>
<stop offset="1" stop-color="#D2FF20"/>
</linearGradient>
</defs>
</svg>
