<svg width="50" height="50" viewBox="0 0 50 50" fill="none" xmlns="http://www.w3.org/2000/svg">
<g clip-path="url(#clip0_263_40)">
<path d="M49.9686 32.1873L47.8476 22.4204C47.7094 21.7843 47.1464 21.3304 46.4954 21.3304H43.9623V16.7291C43.9623 15.965 43.3428 15.3454 42.5786 15.3454C41.8143 15.3454 41.1949 15.965 41.1949 16.7291V21.3304H36.716V12.3012C36.716 11.5369 36.0964 10.9175 35.3323 10.9175H27.4885C26.8833 10.9175 26.3482 11.3109 26.1677 11.8886L23.2187 21.3304H19.1707C18.5236 21.3304 17.9629 21.7788 17.8207 22.4102L16.2465 29.4025H15.5301C15.4464 27.4398 14.6506 25.6056 13.2601 24.1969C11.7633 22.6807 9.7659 21.8456 7.63551 21.8456C6.87125 21.8456 6.25179 22.4652 6.25179 23.2293C6.25179 27.3172 5.1944 31.3311 3.18877 34.8843H1.38373C0.619577 34.8843 0 35.5037 0 36.268C0 37.0323 0.619577 37.6517 1.38373 37.6517H7.53821C11.0767 37.6517 14.1091 35.3423 15.1519 32.17H15.5966C15.5917 32.2732 15.5887 32.3771 15.5887 32.4816C15.5887 36.1216 18.55 39.0828 22.19 39.0828C25.3555 39.0828 28.0066 36.8428 28.6442 33.8649H32.3244C32.962 36.8428 35.6132 39.0828 38.7786 39.0828C41.9442 39.0828 44.5954 36.8428 45.233 33.8648H48.6162C49.0347 33.8648 49.4308 33.6753 49.6934 33.3495C49.9563 33.0236 50.0573 32.5964 49.9686 32.1873ZM7.53821 34.8843H6.3161C7.86189 31.7309 8.76629 28.2987 8.9733 24.7878C9.84361 25.0209 10.6399 25.4819 11.2905 26.141C12.2629 27.1261 12.7886 28.4317 12.7706 29.8172C12.7343 32.6112 10.3871 34.8843 7.53821 34.8843ZM28.5059 13.6849H33.9484V21.3304H26.1179L28.5059 13.6849ZM22.19 36.3154C20.076 36.3154 18.3562 34.5955 18.3562 32.4816C18.3562 30.3677 20.0761 28.6478 22.19 28.6478C24.3039 28.6478 26.0238 30.3677 26.0238 32.4816C26.0238 34.5955 24.304 36.3154 22.19 36.3154ZM38.7788 36.3154C36.6648 36.3154 34.9449 34.5955 34.9449 32.4816C34.9449 30.3677 36.6649 28.6478 38.7788 28.6478C40.8926 28.6478 42.6126 30.3677 42.6126 32.4816C42.6126 34.5955 40.8928 36.3154 38.7788 36.3154ZM45.2329 31.0973C44.5949 28.1199 41.9439 25.8803 38.7788 25.8803C35.6136 25.8803 32.9626 28.12 32.3246 31.0975H28.6441C28.0062 28.12 25.3552 25.8803 22.19 25.8803C21.3367 25.8803 20.5217 26.0448 19.7724 26.3408L20.2775 24.0979H35.3323H45.3799L46.8999 31.0973H45.2329Z" fill="#B4B4B4"/>
</g>
<defs>
<clipPath id="clip0_263_40">
<rect width="50" height="50" fill="white"/>
</clipPath>
</defs>
</svg>
