<svg width="50" height="50" viewBox="0 0 50 50" fill="none" xmlns="http://www.w3.org/2000/svg">
<path d="M37.2297 12.8798C38.5598 13.1892 39.7684 13.8857 40.7031 14.8813C41.218 15.4202 41.6651 16.0199 42.0344 16.6673C42.0516 16.7376 39.6375 18.3594 38.1734 19.2641C38.1203 19.3001 37.9094 19.0704 37.6703 18.7173C37.4029 18.2575 37.0232 17.8731 36.5669 17.5998C36.1106 17.3266 35.5925 17.1735 35.0609 17.1548C33.3781 17.0391 32.2937 17.9204 32.3016 19.3938C32.287 19.7558 32.3696 20.1151 32.5406 20.4344C32.9109 21.2001 33.5984 21.6594 35.7578 22.5954C39.7328 24.3063 41.4391 25.4344 42.4922 27.0376C43.0875 28.0505 43.4541 29.1813 43.5664 30.3508C43.6786 31.5203 43.5339 32.7002 43.1422 33.8079C42.6039 35.0226 41.7502 36.0711 40.6699 36.8446C39.5895 37.618 38.3218 38.0882 36.9984 38.2063C35.5917 38.3677 34.1703 38.353 32.7672 38.1626C30.618 37.8094 28.6381 36.7779 27.1172 35.2188C26.5425 34.5717 26.056 33.8514 25.6703 33.0766C25.8325 32.956 26.0032 32.8474 26.1812 32.7516C26.4281 32.611 27.3625 32.0735 28.2437 31.5626L29.8437 30.6251L30.1781 31.1126C30.7413 31.918 31.4582 32.604 32.2875 33.1313C33.125 33.5907 34.0738 33.8084 35.0278 33.7601C35.9818 33.7119 36.9037 33.3995 37.6906 32.8579C38.0965 32.4623 38.3503 31.9364 38.4074 31.3725C38.4645 30.8086 38.3214 30.2425 38.0031 29.7735C37.5719 29.1563 36.6906 28.6376 34.1859 27.5516C32.222 26.8894 30.4331 25.7917 28.9531 24.3407C28.2483 23.5375 27.7278 22.5898 27.4281 21.5641C27.2065 20.3957 27.1738 19.1992 27.3312 18.0204C27.6253 16.6639 28.3292 15.4306 29.3477 14.4876C30.3662 13.5446 31.6499 12.9374 33.025 12.7485C34.4252 12.5812 35.8426 12.6254 37.2297 12.8798ZM24.1937 15.1969L24.2109 17.4688H16.9766V38.0126H11.875V17.4735H4.64062V15.2423C4.62138 14.4781 4.64224 13.7136 4.70312 12.9516C4.72968 12.9157 9.12812 12.8985 14.4609 12.9079L24.1656 12.9344L24.1937 15.1969Z" fill="url(#paint0_linear_168_11)"/>
<defs>
<linearGradient id="paint0_linear_168_11" x1="4.99997" y1="13.0001" x2="44" y2="38.0001" gradientUnits="userSpaceOnUse">
<stop stop-color="#90FF20"/>
<stop offset="1" stop-color="#D2FF20"/>
</linearGradient>
</defs>
</svg>
