<svg width="50" height="50" viewBox="0 0 50 50" fill="none" xmlns="http://www.w3.org/2000/svg">
<path d="M24.9994 0C11.1921 0.000683594 0.00117188 11.192 0 24.9994C0.00117188 38.8067 11.1921 49.998 24.9994 49.9988C38.8079 49.998 49.9992 38.8067 50 24.9994C49.9992 11.192 38.8079 0.000683594 24.9994 0ZM9.53193 9.53184C11.8112 7.25371 14.5867 5.48154 17.6818 4.38291C16.1991 6.17734 14.9631 8.47529 13.9946 11.1325H8.0832C8.54023 10.5764 9.02305 10.0408 9.53193 9.53184ZM6.40742 13.4763H13.242C12.3623 16.5943 11.8348 20.1007 11.7417 23.8275H3.15693C3.35684 20.0381 4.52148 16.5119 6.40742 13.4763ZM6.40742 36.5226C4.52148 33.4869 3.35684 29.9607 3.15693 26.1713H11.7498C11.8437 29.8943 12.3563 33.4068 13.2348 36.5227L6.40742 36.5226ZM9.53193 40.4668C9.02305 39.9579 8.54014 39.4224 8.08311 38.8662H13.9984C14.4164 40.016 14.8792 41.1068 15.3961 42.1094C16.0752 43.4217 16.8373 44.5965 17.6762 45.6143C14.5832 44.5156 11.8097 42.7435 9.53193 40.4668ZM23.8279 46.8419C23.4621 46.8227 23.0985 46.7953 22.7377 46.7579C22.1625 46.5001 21.593 46.1476 21.0287 45.6875C19.3068 44.2853 17.7107 41.911 16.4977 38.8662H23.8278V46.8419H23.8279ZM23.8279 36.5226H15.6799C14.7544 33.4785 14.1842 29.9492 14.0854 26.1712H23.8278V36.5226H23.8279ZM23.8279 23.8275H14.0928C14.1912 20.0473 14.7642 16.521 15.6903 13.4763H23.828L23.8279 23.8275ZM23.8279 11.1325H16.5085C16.8121 10.3718 17.1303 9.63721 17.4786 8.96504C18.5177 6.95088 19.7413 5.3625 21.0288 4.31113C21.593 3.85117 22.1625 3.49863 22.7378 3.24082C23.0986 3.20352 23.4621 3.17598 23.828 3.15693L23.8279 11.1325ZM43.593 13.4763C45.4789 16.5119 46.6432 20.0382 46.8431 23.8275H38.2502C38.1563 20.1045 37.6437 16.592 36.7648 13.4763H43.593ZM40.4681 9.53184C40.977 10.0407 41.4599 10.5764 41.9169 11.1325H36.0012C35.5831 9.98281 35.12 8.8918 34.6035 7.88936C33.9245 6.57715 33.1623 5.40225 32.3235 4.38447C35.4168 5.48379 38.1899 7.25537 40.4681 9.53184ZM26.1717 3.15693C26.5375 3.17598 26.9011 3.2042 27.2615 3.24082C27.8367 3.49951 28.4063 3.85117 28.9709 4.31113C30.6932 5.71338 32.2889 8.0876 33.5019 11.1324H26.1717V3.15693ZM26.1717 13.4763H34.3197C35.2451 16.5203 35.8158 20.0495 35.9143 23.8275H26.1717V13.4763ZM26.1717 26.1713H35.9065C35.8082 29.9516 35.2353 33.4777 34.309 36.5227H26.1717V26.1713ZM28.9708 45.6875C28.4063 46.1476 27.8366 46.4993 27.2614 46.7579C26.901 46.7945 26.5374 46.8227 26.1716 46.8419V38.8663H33.491C33.1874 39.6269 32.8692 40.3616 32.521 41.0338C31.482 43.0478 30.2583 44.6362 28.9708 45.6875ZM40.4681 40.4668C38.1892 42.7449 35.413 44.5172 32.3178 45.6157C33.8009 43.8213 35.036 41.5234 36.005 38.8662H41.9169C41.4598 39.4225 40.977 39.958 40.4681 40.4668ZM43.593 36.5226H36.7572C37.6369 33.4045 38.1648 29.8974 38.2579 26.1712H46.8431C46.6432 29.9607 45.4789 33.4869 43.593 36.5226Z" fill="white"/>
</svg>
