<svg width="50" height="56" viewBox="0 0 50 56" fill="none" xmlns="http://www.w3.org/2000/svg">
<path d="M48.4612 42.7392L25.9883 55.4513V45.5505L39.9774 37.8475L48.4612 42.7347V42.7392ZM50 41.3448V14.7608L41.778 19.5126V36.602L50 41.3448ZM1.53881 42.7392L24.0117 55.4513V45.5505L10.0226 37.8475L1.53881 42.7392ZM0 41.3448V14.7608L8.22202 19.5126V36.602L0 41.3448ZM0.965704 13.037L24.0117 0V9.56679L9.24188 17.6895L9.12455 17.7527L0.965704 13.037ZM49.0343 13.037L25.9883 0V9.56679L40.7581 17.6895L40.8755 17.7572L49.0343 13.0415V13.037Z" fill="url(#paint0_linear_261_32)"/>
<path d="M24.0117 43.3212L10.194 35.6949V20.6452L24.0117 28.6236V43.3212ZM25.9883 43.3212L39.8059 35.7039V20.6452L25.9883 28.6236V43.3212ZM11.1281 18.953L25 11.2815L38.8718 18.9078L25 26.9133L11.1281 18.9078V18.953Z" fill="url(#paint1_linear_261_32)"/>
<defs>
<linearGradient id="paint0_linear_261_32" x1="2.52562e-07" y1="1" x2="50" y2="55" gradientUnits="userSpaceOnUse">
<stop stop-color="#90FF20"/>
<stop offset="1" stop-color="#D2FF20"/>
</linearGradient>
<linearGradient id="paint1_linear_261_32" x1="25" y1="11.2815" x2="25" y2="43.3212" gradientUnits="userSpaceOnUse">
<stop stop-color="#90FF20"/>
<stop offset="0.9999" stop-color="#D2FF20"/>
<stop offset="1" stop-color="#1C78C0" stop-opacity="0"/>
<stop offset="1" stop-color="#D2FF20"/>
</linearGradient>
</defs>
</svg>
