<svg width="50" height="48" viewBox="0 0 50 48" fill="none" xmlns="http://www.w3.org/2000/svg">
<path d="M36.9974 27.4928C36.9 27.448 33.2549 25.7304 32.6072 25.5073C32.3427 25.4164 32.0594 25.3277 31.7581 25.3277C31.2659 25.3277 30.8525 25.5625 30.5304 26.0235C30.1663 26.5414 29.064 27.7744 28.7234 28.1427C28.6789 28.1914 28.6182 28.2495 28.5818 28.2495C28.5492 28.2495 27.9851 28.0272 27.8143 27.9562C23.9041 26.3308 20.9361 22.4221 20.5291 21.763C20.471 21.6683 20.4685 21.6252 20.468 21.6252C20.4823 21.5751 20.6138 21.4489 20.6817 21.3838C20.8802 21.1959 21.0953 20.9481 21.3034 20.7084C21.402 20.5948 21.5007 20.4811 21.5976 20.3739C21.8995 20.0378 22.0339 19.7768 22.1898 19.4745L22.2714 19.3174C22.652 18.594 22.327 17.9835 22.2219 17.7863C22.1357 17.6214 20.5966 14.0668 20.433 13.6933C20.0395 12.7921 19.5195 12.3726 18.7969 12.3726C18.7299 12.3726 18.7969 12.3726 18.5158 12.3839C18.1734 12.3977 16.3089 12.6326 15.4846 13.1299C14.6104 13.6573 13.1315 15.3384 13.1315 18.2949C13.1315 20.9558 14.8961 23.4682 15.6537 24.4238C15.6726 24.4479 15.7072 24.4968 15.7573 24.567C18.6588 28.6218 22.2758 31.6268 25.9425 33.0285C29.4726 34.3778 31.1442 34.5338 32.0945 34.5338H32.0947C32.494 34.5338 32.8137 34.5038 33.0956 34.4772L33.2745 34.4609C34.494 34.3575 37.1739 33.0287 37.7835 31.4076C38.2637 30.1308 38.3903 28.7358 38.0708 28.2296C37.852 27.8853 37.4749 27.7121 36.9974 27.4928Z" fill="white"/>
<path d="M25.4438 0C11.9022 0 0.885353 10.4631 0.885353 23.324C0.885353 27.4837 2.04867 31.5554 4.2524 35.119L0.0343779 47.0255C-0.0441936 47.2475 0.014248 47.4929 0.185839 47.6601C0.309703 47.7811 0.477722 47.8463 0.649313 47.8463C0.71506 47.8463 0.781294 47.8368 0.845905 47.8171L13.8199 43.872C17.3703 45.6872 21.3829 46.6454 25.444 46.6454C38.9842 46.6455 50 36.1835 50 23.324C50 10.4631 38.9842 0 25.4438 0ZM25.4438 41.7869C21.6225 41.7869 17.9214 40.731 14.7399 38.7333C14.6329 38.666 14.5087 38.6316 14.3837 38.6316C14.3177 38.6316 14.2514 38.6412 14.187 38.6608L7.68779 40.6377L9.78585 34.7145C9.8537 34.5228 9.81978 34.3114 9.69478 34.148C7.27205 30.9802 5.99136 27.2375 5.99136 23.324C5.99136 13.1422 14.7177 4.85858 25.4437 4.85858C36.1683 4.85858 44.8937 13.1422 44.8937 23.324C44.8938 33.5045 36.1687 41.7869 25.4438 41.7869Z" fill="white"/>
</svg>
